<svg version="1.2" xmlns="http://www.w3.org/2000/svg" viewBox="0 0 1590 1598" width="1590" height="1598">
	<title>HAS</title>

	<style>
		.s0 { fill: #002169 } 
		.s1 { fill: #39c9dd } 
	</style>
	<g id="Clip-Path: Clip-Path: Page 1" clip-path="url(#cp1)">
		<g id="Clip-Path: Page 1">
			<g id="Page 1">
				<path id="Path 17" fill-rule="evenodd" class="s0" d="m1314.9 0.8c-138.8 0-258 2.5-255.5 5v529h-530v-529c3.3-2.5-115.8-5-254.7-5-138.8 0-277.7 2.5-274.4 5v1586.3c0 5.8 135.6 5.8 274.4 5.8 135.6 0 254.7 0 254.7-5.8v-529h530v529c0 5.8 119.1 5.8 255.5 5.8 138.9 0 274.5 0 274.5-5.8v-1586.3c5.7-2.5-135.6-5-274.5-5z"/>
				<path id="Path 21" fill-rule="evenodd" class="s1" d="m529.4 5.8l530 529h-530zm0 1057.3h530l-530 528.3zm796.2-262.9l-266.2 262.9v-528.3z"/>
			</g>
		</g>
	</g>
</svg>